<svg width="24" height="24" viewBox="0 0 24 24" fill="none" xmlns="http://www.w3.org/2000/svg">
<path d="M3.99997 2.99988C2.89199 2.99988 2 3.89188 2 4.99985C2 6.10783 2.892 6.99983 3.99997 6.99983H19.9998C21.1078 6.99983 21.9997 6.10783 21.9997 4.99985C21.9997 3.89188 21.1077 2.99988 19.9998 2.99988H3.99997ZM3.99997 9.77709C2.89199 9.77709 2 10.7189 2 11.8884C2 13.0579 2.892 13.9996 3.99997 13.9996H19.9998C21.1078 13.9996 21.9997 13.0579 21.9997 11.8884C21.9997 10.7189 21.1078 9.77709 19.9998 9.77709H3.99997ZM3.99997 16.777C2.89199 16.777 2 17.7188 2 18.8883C2 20.0578 2.89202 20.9996 3.99997 20.9996H19.9998C21.1078 20.9996 21.9997 20.0578 21.9997 18.8883C21.9997 17.7188 21.1077 16.777 19.9998 16.777H3.99997Z" fill="white"/>
</svg>
