<svg width="682" height="590" viewBox="0 0 682 590" fill="none" xmlns="http://www.w3.org/2000/svg">
<path d="M161.867 0.859719C100.667 10.1931 50.6667 47.6597 21.4667 105.926C13.3333 122.326 7.73333 138.46 3.6 158.46C0.533333 172.993 0.133333 178.46 0 199.926C0 220.726 0.4 226.86 2.93333 238.593C11.6 278.593 31.4667 319.26 62.2667 360.326C93.0667 401.26 143.733 451.793 195.867 493.393C233.2 523.26 288.667 562.193 320.667 581.126C338.933 591.926 342 592.06 358.667 582.193C432.133 538.46 522.8 466.46 574.933 410.593C635.333 345.793 667.2 291.393 678.8 233.393C682.4 215.793 682 179.793 678.133 160.193C665.733 98.193 629.067 46.7264 578 20.1931C562 11.7931 554 8.72639 537.2 4.45972C519.067 -0.206948 487.2 -1.40695 468.533 1.79305C447.067 5.52639 420.933 15.5264 404 26.3264C383.2 39.6597 360.933 61.1264 348.267 80.0597C344.4 85.793 340.933 90.593 340.533 90.593C340.133 90.593 336.533 85.6597 332.533 79.5264C322.933 65.1264 297.867 40.0597 283.2 30.3264C261.2 15.7931 237.6 6.19305 213.067 1.92639C202.533 0.0597186 170.933 -0.606948 161.867 0.859719Z" fill="white"/>
</svg>
