<?xml version="1.0" standalone="no"?>
<!DOCTYPE svg PUBLIC "-//W3C//DTD SVG 20010904//EN"
 "http://www.w3.org/TR/2001/REC-SVG-20010904/DTD/svg10.dtd">
<svg version="1.0" xmlns="http://www.w3.org/2000/svg"
 width="941.000000pt" height="265.000000pt" viewBox="0 0 941.000000 265.000000"
 preserveAspectRatio="xMidYMid meet">

<g transform="translate(0.000000,265.000000) scale(0.100000,-0.100000)"
fill="#000000" stroke="none">
<path d="M1880 1525 l0 -44 128 -3 127 -3 3 -373 2 -373 53 3 52 3 2 130 c1
72 2 239 2 373 l1 242 125 0 125 0 0 45 0 45 -310 0 -310 0 0 -45z"/>
<path d="M5080 1431 l0 -139 -97 2 c-117 1 -160 -12 -219 -66 -62 -57 -87
-128 -87 -243 0 -99 18 -156 67 -208 70 -75 214 -77 310 -3 19 14 37 26 40 26
2 0 6 -15 8 -32 3 -30 6 -33 41 -36 l37 -3 0 420 0 421 -50 0 -50 0 0 -139z
m-27 -230 l27 -11 0 -149 0 -149 -42 -36 c-40 -35 -91 -56 -133 -56 -34 0 -85
38 -100 74 -35 84 -26 226 17 282 46 58 146 78 231 45z"/>
<path d="M6180 1149 l0 -420 53 3 52 3 3 418 2 417 -55 0 -55 0 0 -421z"/>
<path d="M6534 1468 c-185 -239 -224 -292 -224 -299 0 -4 70 -105 156 -224
l156 -215 64 0 c35 0 64 3 64 8 0 4 -72 102 -160 217 -87 116 -159 212 -160
215 0 3 69 90 154 193 85 103 158 191 161 197 4 6 -19 10 -63 10 l-70 0 -78
-102z"/>
<path d="M3586 1290 c-58 -18 -105 -61 -137 -125 -26 -54 -31 -75 -32 -147 -2
-139 40 -230 127 -275 42 -22 180 -29 272 -13 70 12 74 14 74 39 0 49 -10 54
-78 41 -85 -17 -185 -9 -219 17 -36 26 -59 68 -68 120 l-7 43 194 2 193 3 -1
75 c-2 111 -42 179 -126 215 -40 16 -144 19 -192 5z m161 -86 c34 -21 53 -56
56 -100 l2 -39 -134 -3 c-74 -1 -138 1 -142 5 -13 13 9 79 34 108 43 51 129
64 184 29z"/>
<path d="M4218 1291 c-113 -37 -173 -136 -172 -286 1 -97 15 -150 51 -198 48
-61 94 -81 203 -84 52 -2 122 2 155 9 59 13 60 14 58 46 0 19 -3 36 -6 39 -3
3 -29 0 -57 -6 -70 -15 -164 -14 -203 3 -56 23 -97 89 -97 152 l0 24 193 2
192 3 -1 71 c0 91 -31 156 -92 199 -38 26 -53 30 -120 32 -42 1 -89 -2 -104
-6z m160 -88 c26 -16 62 -86 57 -112 -2 -9 -4 -19 -4 -23 -1 -11 -253 -10
-270 1 -12 8 -12 16 3 55 35 92 136 129 214 79z"/>
<path d="M5519 1286 c-91 -32 -141 -99 -160 -211 -29 -172 35 -310 160 -345
47 -13 181 -11 251 3 55 12 55 12 52 46 -1 19 -4 37 -6 39 -2 2 -30 -1 -62 -7
-134 -25 -237 -3 -269 58 -8 17 -18 51 -21 76 l-7 45 194 2 194 3 -3 60 c-7
169 -80 246 -233 245 -30 -1 -70 -7 -90 -14z m168 -83 c47 -31 72 -123 37
-137 -9 -3 -69 -6 -135 -6 -133 0 -139 3 -120 63 14 41 58 85 97 97 36 11 89
4 121 -17z"/>
<path d="M6935 1293 c-11 -2 -35 -9 -53 -15 -31 -9 -33 -12 -26 -41 9 -46 10
-46 61 -31 60 18 156 18 192 0 33 -18 51 -54 51 -105 l0 -38 -102 -6 c-173
-11 -253 -68 -250 -179 2 -100 71 -158 188 -158 48 0 74 6 120 30 32 16 60 30
61 30 1 0 3 -10 5 -22 2 -19 10 -24 41 -26 l37 -3 0 219 c0 209 -1 221 -23
262 -35 67 -87 90 -196 89 -47 -1 -95 -3 -106 -6z m223 -370 c3 -60 2 -62 -33
-89 -43 -32 -131 -45 -170 -24 -52 28 -56 115 -8 147 31 20 90 31 158 29 l50
-1 3 -62z"/>
<path d="M7640 1281 c-19 -11 -44 -28 -54 -40 -26 -29 -33 -27 -40 14 -7 33
-9 35 -47 35 l-39 0 2 -277 3 -278 48 -3 47 -3 0 195 0 195 30 35 c59 67 138
84 187 42 l28 -24 5 -219 5 -218 50 0 50 0 5 200 c3 110 9 206 14 213 17 27
100 72 132 72 49 0 85 -36 95 -96 4 -27 8 -127 8 -221 l1 -173 51 0 51 0 -4
223 c-3 215 -4 223 -28 267 -31 56 -76 80 -150 80 -63 0 -123 -25 -159 -64
-14 -14 -27 -26 -31 -26 -3 0 -13 13 -23 29 -9 16 -32 36 -51 45 -46 22 -141
20 -186 -3z"/>
<path d="M8570 1273 c-71 -37 -113 -97 -130 -187 -27 -144 14 -276 104 -331
43 -26 58 -30 145 -32 53 -2 123 2 156 9 l60 13 -3 35 c-2 19 -5 36 -7 38 -2
2 -29 -1 -61 -7 -134 -25 -237 -3 -269 58 -8 17 -18 51 -21 76 l-7 45 194 2
194 3 -2 68 c-2 91 -36 166 -93 203 -35 23 -55 28 -123 32 -75 4 -87 1 -137
-25z m193 -65 c29 -15 57 -70 57 -110 l0 -36 -135 -1 c-151 0 -155 2 -136 62
14 41 58 85 97 97 31 10 88 4 117 -12z"/>
<path d="M9280 1286 c-14 -8 -38 -30 -54 -50 -15 -20 -32 -36 -37 -36 -4 0 -9
19 -11 43 -3 41 -4 42 -40 45 l-38 3 0 -280 0 -281 50 0 50 0 0 181 0 182 36
44 c45 55 84 76 128 68 33 -7 33 -6 39 36 3 24 3 47 1 51 -8 13 -97 8 -124 -6z"/>
<path d="M2495 1258 c23 -108 132 -464 157 -511 7 -15 20 -17 66 -15 l56 3 60
208 c32 114 62 205 65 202 3 -4 33 -97 66 -208 l61 -202 56 -3 56 -3 32 88
c36 100 140 441 140 460 0 9 -16 13 -49 13 -48 0 -48 -1 -54 -35 -10 -60 -109
-405 -116 -405 -4 0 -36 99 -71 220 l-63 220 -53 0 -53 0 -19 -62 c-10 -35
-39 -134 -63 -220 -24 -87 -47 -158 -51 -158 -9 0 -41 106 -88 290 l-36 145
-53 3 -53 3 7 -33z"/>
</g>
</svg>
